# xmcd
#
# Track frame offsets: 
#        150
#        15355
#        37981
#        53468
#        75924
#        105811
#        127873
#        144671
#        176772
#        202661
#
# Disc length: 2939 seconds
#
# Revision: 0
# Processed by: cddbd v1.5PL3 Copyright (c) Steve Scherf et al.
# Submitted via: ExactAudioCopy v0.95a5
#
DISCID=620b790a
DTITLE=Grevacion en Directo - La Fiesta Gitana 4
DYEAR=1900
DGENRE=
TTITLE0=Rumba
TTITLE1=Jaleos
TTITLE2=Bulerias
TTITLE3=Bulerias Del Lolo
TTITLE4=Bulerias de la rachola
TTITLE5=Bulerias de Coco
TTITLE6=Fandangos por Tangos
TTITLE7=Tangos
TTITLE8=Bulerias de Juaneke
TTITLE9=Homenaje a Bambino
EXTD=
EXTT0=
EXTT1=
EXTT2=
EXTT3=
EXTT4=
EXTT5=
EXTT6=
EXTT7=
EXTT8=
EXTT9=
PLAYORDER=
